<svg xmlns="http://www.w3.org/2000/svg" viewBox="0 0 640 360" fill="none" font-family="Hanken Grotesk,sans-serif">
  <text x="90" y="79" text-anchor="end" fill="#A5680F" font-size="13" font-weight="500">drive · 6&#8202;Hz</text>
  <circle cx="106" cy="75" r="4" fill="#A5680F"/>
  <line x1="192" y1="40" x2="192" y2="330" stroke="#A5680F" stroke-opacity="0.18" stroke-width="1" stroke-dasharray="3 5"/><line x1="288" y1="40" x2="288" y2="330" stroke="#A5680F" stroke-opacity="0.18" stroke-width="1" stroke-dasharray="3 5"/><line x1="384" y1="40" x2="384" y2="330" stroke="#A5680F" stroke-opacity="0.18" stroke-width="1" stroke-dasharray="3 5"/><line x1="480" y1="40" x2="480" y2="330" stroke="#A5680F" stroke-opacity="0.18" stroke-width="1" stroke-dasharray="3 5"/>
  <path d="M120 92 V58 H168.0 V92 H216.0 V58 H264.0 V92 H312.0 V58 H360.0 V92 H408.0 V58 H456.0 V92 H504.0 V58 H552.0 V92 H600.0" stroke="#A5680F" stroke-width="3" stroke-linejoin="round"/>
  <polyline points="120.0,150.0 122.0,147.8 124.0,145.6 126.0,143.5 128.0,141.5 130.0,139.7 132.0,138.0 134.0,136.5 136.0,135.3 138.0,134.3 140.0,133.6 142.0,133.1 144.0,133.0 146.0,133.1 148.0,133.6 150.0,134.3 152.0,135.3 154.0,136.5 156.0,138.0 158.0,139.7 160.0,141.5 162.0,143.5 164.0,145.6 166.0,147.8 168.0,150.0 170.0,152.2 172.0,154.4 174.0,156.5 176.0,158.5 178.0,160.3 180.0,162.0 182.0,163.5 184.0,164.7 186.0,165.7 188.0,166.4 190.0,166.9 192.0,167.0 194.0,166.9 196.0,166.4 198.0,165.7 200.0,164.7 202.0,163.5 204.0,162.0 206.0,160.3 208.0,158.5 210.0,156.5 212.0,154.4 214.0,152.2 216.0,150.0 218.0,147.8 220.0,145.6 222.0,143.5 224.0,141.5 226.0,139.7 228.0,138.0 230.0,136.5 232.0,135.3 234.0,134.3 236.0,133.6 238.0,133.1 240.0,133.0 242.0,133.1 244.0,133.6 246.0,134.3 248.0,135.3 250.0,136.5 252.0,138.0 254.0,139.7 256.0,141.5 258.0,143.5 260.0,145.6 262.0,147.8 264.0,150.0 266.0,152.2 268.0,154.4 270.0,156.5 272.0,158.5 274.0,160.3 276.0,162.0 278.0,163.5 280.0,164.7 282.0,165.7 284.0,166.4 286.0,166.9 288.0,167.0 290.0,166.9 292.0,166.4 294.0,165.7 296.0,164.7 298.0,163.5 300.0,162.0 302.0,160.3 304.0,158.5 306.0,156.5 308.0,154.4 310.0,152.2 312.0,150.0 314.0,147.8 316.0,145.6 318.0,143.5 320.0,141.5 322.0,139.7 324.0,138.0 326.0,136.5 328.0,135.3 330.0,134.3 332.0,133.6 334.0,133.1 336.0,133.0 338.0,133.1 340.0,133.6 342.0,134.3 344.0,135.3 346.0,136.5 348.0,138.0 350.0,139.7 352.0,141.5 354.0,143.5 356.0,145.6 358.0,147.8 360.0,150.0 362.0,152.2 364.0,154.4 366.0,156.5 368.0,158.5 370.0,160.3 372.0,162.0 374.0,163.5 376.0,164.7 378.0,165.7 380.0,166.4 382.0,166.9 384.0,167.0 386.0,166.9 388.0,166.4 390.0,165.7 392.0,164.7 394.0,163.5 396.0,162.0 398.0,160.3 400.0,158.5 402.0,156.5 404.0,154.4 406.0,152.2 408.0,150.0 410.0,147.8 412.0,145.6 414.0,143.5 416.0,141.5 418.0,139.7 420.0,138.0 422.0,136.5 424.0,135.3 426.0,134.3 428.0,133.6 430.0,133.1 432.0,133.0 434.0,133.1 436.0,133.6 438.0,134.3 440.0,135.3 442.0,136.5 444.0,138.0 446.0,139.7 448.0,141.5 450.0,143.5 452.0,145.6 454.0,147.8 456.0,150.0 458.0,152.2 460.0,154.4 462.0,156.5 464.0,158.5 466.0,160.3 468.0,162.0 470.0,163.5 472.0,164.7 474.0,165.7 476.0,166.4 478.0,166.9 480.0,167.0 482.0,166.9 484.0,166.4 486.0,165.7 488.0,164.7 490.0,163.5 492.0,162.0 494.0,160.3 496.0,158.5 498.0,156.5 500.0,154.4 502.0,152.2 504.0,150.0 506.0,147.8 508.0,145.6 510.0,143.5 512.0,141.5 514.0,139.7 516.0,138.0 518.0,136.5 520.0,135.3 522.0,134.3 524.0,133.6 526.0,133.1 528.0,133.0 530.0,133.1 532.0,133.6 534.0,134.3 536.0,135.3 538.0,136.5 540.0,138.0 542.0,139.7 544.0,141.5 546.0,143.5 548.0,145.6 550.0,147.8 552.0,150.0 554.0,152.2 556.0,154.4 558.0,156.5 560.0,158.5 562.0,160.3 564.0,162.0 566.0,163.5 568.0,164.7 570.0,165.7 572.0,166.4 574.0,166.9 576.0,167.0 578.0,166.9 580.0,166.4 582.0,165.7 584.0,164.7 586.0,163.5 588.0,162.0 590.0,160.3 592.0,158.5 594.0,156.5 596.0,154.4 598.0,152.2 600.0,150.0" fill="none" stroke="#8A8073" stroke-width="2.4" stroke-linecap="round"/><polyline points="120.0,204.2 122.0,201.9 124.0,199.8 126.0,197.7 128.0,195.8 130.0,194.0 132.0,192.4 134.0,191.0 136.0,189.9 138.0,189.0 140.0,188.4 142.0,188.1 144.0,188.0 146.0,188.3 148.0,188.8 150.0,189.6 152.0,190.7 154.0,192.0 156.0,193.6 158.0,195.3 160.0,197.2 162.0,199.3 164.0,201.4 166.0,203.6 168.0,205.8 170.0,208.1 172.0,210.2 174.0,212.3 176.0,214.2 178.0,216.0 180.0,217.6 182.0,219.0 184.0,220.1 186.0,221.0 188.0,221.6 190.0,221.9 192.0,222.0 194.0,221.7 196.0,221.2 198.0,220.4 200.0,219.3 202.0,218.0 204.0,216.4 206.0,214.7 208.0,212.8 210.0,210.7 212.0,208.6 214.0,206.4 216.0,204.2 218.0,201.9 220.0,199.8 222.0,197.7 224.0,195.8 226.0,194.0 228.0,192.4 230.0,191.0 232.0,189.9 234.0,189.0 236.0,188.4 238.0,188.1 240.0,188.0 242.0,188.3 244.0,188.8 246.0,189.6 248.0,190.7 250.0,192.0 252.0,193.6 254.0,195.3 256.0,197.2 258.0,199.3 260.0,201.4 262.0,203.6 264.0,205.8 266.0,208.1 268.0,210.2 270.0,212.3 272.0,214.2 274.0,216.0 276.0,217.6 278.0,219.0 280.0,220.1 282.0,221.0 284.0,221.6 286.0,221.9 288.0,222.0 290.0,221.7 292.0,221.2 294.0,220.4 296.0,219.3 298.0,218.0 300.0,216.4 302.0,214.7 304.0,212.8 306.0,210.7 308.0,208.6 310.0,206.4 312.0,204.2 314.0,201.9 316.0,199.8 318.0,197.7 320.0,195.8 322.0,194.0 324.0,192.4 326.0,191.0 328.0,189.9 330.0,189.0 332.0,188.4 334.0,188.1 336.0,188.0 338.0,188.3 340.0,188.8 342.0,189.6 344.0,190.7 346.0,192.0 348.0,193.6 350.0,195.3 352.0,197.2 354.0,199.3 356.0,201.4 358.0,203.6 360.0,205.8 362.0,208.1 364.0,210.2 366.0,212.3 368.0,214.2 370.0,216.0 372.0,217.6 374.0,219.0 376.0,220.1 378.0,221.0 380.0,221.6 382.0,221.9 384.0,222.0 386.0,221.7 388.0,221.2 390.0,220.4 392.0,219.3 394.0,218.0 396.0,216.4 398.0,214.7 400.0,212.8 402.0,210.7 404.0,208.6 406.0,206.4 408.0,204.2 410.0,201.9 412.0,199.8 414.0,197.7 416.0,195.8 418.0,194.0 420.0,192.4 422.0,191.0 424.0,189.9 426.0,189.0 428.0,188.4 430.0,188.1 432.0,188.0 434.0,188.3 436.0,188.8 438.0,189.6 440.0,190.7 442.0,192.0 444.0,193.6 446.0,195.3 448.0,197.2 450.0,199.3 452.0,201.4 454.0,203.6 456.0,205.8 458.0,208.1 460.0,210.2 462.0,212.3 464.0,214.2 466.0,216.0 468.0,217.6 470.0,219.0 472.0,220.1 474.0,221.0 476.0,221.6 478.0,221.9 480.0,222.0 482.0,221.7 484.0,221.2 486.0,220.4 488.0,219.3 490.0,218.0 492.0,216.4 494.0,214.7 496.0,212.8 498.0,210.7 500.0,208.6 502.0,206.4 504.0,204.2 506.0,201.9 508.0,199.8 510.0,197.7 512.0,195.8 514.0,194.0 516.0,192.4 518.0,191.0 520.0,189.9 522.0,189.0 524.0,188.4 526.0,188.1 528.0,188.0 530.0,188.3 532.0,188.8 534.0,189.6 536.0,190.7 538.0,192.0 540.0,193.6 542.0,195.3 544.0,197.2 546.0,199.3 548.0,201.4 550.0,203.6 552.0,205.8 554.0,208.1 556.0,210.2 558.0,212.3 560.0,214.2 562.0,216.0 564.0,217.6 566.0,219.0 568.0,220.1 570.0,221.0 572.0,221.6 574.0,221.9 576.0,222.0 578.0,221.7 580.0,221.2 582.0,220.4 584.0,219.3 586.0,218.0 588.0,216.4 590.0,214.7 592.0,212.8 594.0,210.7 596.0,208.6 598.0,206.4 600.0,204.2" fill="none" stroke="#8A8073" stroke-width="2.4" stroke-linecap="round"/><polyline points="120.0,258.3 122.0,256.1 124.0,254.0 126.0,252.0 128.0,250.1 130.0,248.4 132.0,246.8 134.0,245.5 136.0,244.5 138.0,243.7 140.0,243.2 142.0,243.0 144.0,243.1 146.0,243.5 148.0,244.1 150.0,245.0 152.0,246.2 154.0,247.6 156.0,249.2 158.0,251.0 160.0,253.0 162.0,255.1 164.0,257.3 166.0,259.5 168.0,261.7 170.0,263.9 172.0,266.0 174.0,268.0 176.0,269.9 178.0,271.6 180.0,273.2 182.0,274.5 184.0,275.5 186.0,276.3 188.0,276.8 190.0,277.0 192.0,276.9 194.0,276.5 196.0,275.9 198.0,275.0 200.0,273.8 202.0,272.4 204.0,270.8 206.0,269.0 208.0,267.0 210.0,264.9 212.0,262.7 214.0,260.5 216.0,258.3 218.0,256.1 220.0,254.0 222.0,252.0 224.0,250.1 226.0,248.4 228.0,246.8 230.0,245.5 232.0,244.5 234.0,243.7 236.0,243.2 238.0,243.0 240.0,243.1 242.0,243.5 244.0,244.1 246.0,245.0 248.0,246.2 250.0,247.6 252.0,249.2 254.0,251.0 256.0,253.0 258.0,255.1 260.0,257.3 262.0,259.5 264.0,261.7 266.0,263.9 268.0,266.0 270.0,268.0 272.0,269.9 274.0,271.6 276.0,273.2 278.0,274.5 280.0,275.5 282.0,276.3 284.0,276.8 286.0,277.0 288.0,276.9 290.0,276.5 292.0,275.9 294.0,275.0 296.0,273.8 298.0,272.4 300.0,270.8 302.0,269.0 304.0,267.0 306.0,264.9 308.0,262.7 310.0,260.5 312.0,258.3 314.0,256.1 316.0,254.0 318.0,252.0 320.0,250.1 322.0,248.4 324.0,246.8 326.0,245.5 328.0,244.5 330.0,243.7 332.0,243.2 334.0,243.0 336.0,243.1 338.0,243.5 340.0,244.1 342.0,245.0 344.0,246.2 346.0,247.6 348.0,249.2 350.0,251.0 352.0,253.0 354.0,255.1 356.0,257.3 358.0,259.5 360.0,261.7 362.0,263.9 364.0,266.0 366.0,268.0 368.0,269.9 370.0,271.6 372.0,273.2 374.0,274.5 376.0,275.5 378.0,276.3 380.0,276.8 382.0,277.0 384.0,276.9 386.0,276.5 388.0,275.9 390.0,275.0 392.0,273.8 394.0,272.4 396.0,270.8 398.0,269.0 400.0,267.0 402.0,264.9 404.0,262.7 406.0,260.5 408.0,258.3 410.0,256.1 412.0,254.0 414.0,252.0 416.0,250.1 418.0,248.4 420.0,246.8 422.0,245.5 424.0,244.5 426.0,243.7 428.0,243.2 430.0,243.0 432.0,243.1 434.0,243.5 436.0,244.1 438.0,245.0 440.0,246.2 442.0,247.6 444.0,249.2 446.0,251.0 448.0,253.0 450.0,255.1 452.0,257.3 454.0,259.5 456.0,261.7 458.0,263.9 460.0,266.0 462.0,268.0 464.0,269.9 466.0,271.6 468.0,273.2 470.0,274.5 472.0,275.5 474.0,276.3 476.0,276.8 478.0,277.0 480.0,276.9 482.0,276.5 484.0,275.9 486.0,275.0 488.0,273.8 490.0,272.4 492.0,270.8 494.0,269.0 496.0,267.0 498.0,264.9 500.0,262.7 502.0,260.5 504.0,258.3 506.0,256.1 508.0,254.0 510.0,252.0 512.0,250.1 514.0,248.4 516.0,246.8 518.0,245.5 520.0,244.5 522.0,243.7 524.0,243.2 526.0,243.0 528.0,243.1 530.0,243.5 532.0,244.1 534.0,245.0 536.0,246.2 538.0,247.6 540.0,249.2 542.0,251.0 544.0,253.0 546.0,255.1 548.0,257.3 550.0,259.5 552.0,261.7 554.0,263.9 556.0,266.0 558.0,268.0 560.0,269.9 562.0,271.6 564.0,273.2 566.0,274.5 568.0,275.5 570.0,276.3 572.0,276.8 574.0,277.0 576.0,276.9 578.0,276.5 580.0,275.9 582.0,275.0 584.0,273.8 586.0,272.4 588.0,270.8 590.0,269.0 592.0,267.0 594.0,264.9 596.0,262.7 598.0,260.5 600.0,258.3" fill="none" stroke="#8A8073" stroke-width="2.4" stroke-linecap="round"/><polyline points="120.0,312.5 122.0,310.3 124.0,308.2 126.0,306.2 128.0,304.4 130.0,302.8 132.0,301.3 134.0,300.1 136.0,299.2 138.0,298.5 140.0,298.1 142.0,298.0 144.0,298.2 146.0,298.7 148.0,299.4 150.0,300.4 152.0,301.7 154.0,303.2 156.0,304.9 158.0,306.8 160.0,308.8 162.0,310.9 164.0,313.1 166.0,315.3 168.0,317.5 170.0,319.7 172.0,321.8 174.0,323.8 176.0,325.6 178.0,327.2 180.0,328.7 182.0,329.9 184.0,330.8 186.0,331.5 188.0,331.9 190.0,332.0 192.0,331.8 194.0,331.3 196.0,330.6 198.0,329.6 200.0,328.3 202.0,326.8 204.0,325.1 206.0,323.2 208.0,321.2 210.0,319.1 212.0,316.9 214.0,314.7 216.0,312.5 218.0,310.3 220.0,308.2 222.0,306.2 224.0,304.4 226.0,302.8 228.0,301.3 230.0,300.1 232.0,299.2 234.0,298.5 236.0,298.1 238.0,298.0 240.0,298.2 242.0,298.7 244.0,299.4 246.0,300.4 248.0,301.7 250.0,303.2 252.0,304.9 254.0,306.8 256.0,308.8 258.0,310.9 260.0,313.1 262.0,315.3 264.0,317.5 266.0,319.7 268.0,321.8 270.0,323.8 272.0,325.6 274.0,327.2 276.0,328.7 278.0,329.9 280.0,330.8 282.0,331.5 284.0,331.9 286.0,332.0 288.0,331.8 290.0,331.3 292.0,330.6 294.0,329.6 296.0,328.3 298.0,326.8 300.0,325.1 302.0,323.2 304.0,321.2 306.0,319.1 308.0,316.9 310.0,314.7 312.0,312.5 314.0,310.3 316.0,308.2 318.0,306.2 320.0,304.4 322.0,302.8 324.0,301.3 326.0,300.1 328.0,299.2 330.0,298.5 332.0,298.1 334.0,298.0 336.0,298.2 338.0,298.7 340.0,299.4 342.0,300.4 344.0,301.7 346.0,303.2 348.0,304.9 350.0,306.8 352.0,308.8 354.0,310.9 356.0,313.1 358.0,315.3 360.0,317.5 362.0,319.7 364.0,321.8 366.0,323.8 368.0,325.6 370.0,327.2 372.0,328.7 374.0,329.9 376.0,330.8 378.0,331.5 380.0,331.9 382.0,332.0 384.0,331.8 386.0,331.3 388.0,330.6 390.0,329.6 392.0,328.3 394.0,326.8 396.0,325.1 398.0,323.2 400.0,321.2 402.0,319.1 404.0,316.9 406.0,314.7 408.0,312.5 410.0,310.3 412.0,308.2 414.0,306.2 416.0,304.4 418.0,302.8 420.0,301.3 422.0,300.1 424.0,299.2 426.0,298.5 428.0,298.1 430.0,298.0 432.0,298.2 434.0,298.7 436.0,299.4 438.0,300.4 440.0,301.7 442.0,303.2 444.0,304.9 446.0,306.8 448.0,308.8 450.0,310.9 452.0,313.1 454.0,315.3 456.0,317.5 458.0,319.7 460.0,321.8 462.0,323.8 464.0,325.6 466.0,327.2 468.0,328.7 470.0,329.9 472.0,330.8 474.0,331.5 476.0,331.9 478.0,332.0 480.0,331.8 482.0,331.3 484.0,330.6 486.0,329.6 488.0,328.3 490.0,326.8 492.0,325.1 494.0,323.2 496.0,321.2 498.0,319.1 500.0,316.9 502.0,314.7 504.0,312.5 506.0,310.3 508.0,308.2 510.0,306.2 512.0,304.4 514.0,302.8 516.0,301.3 518.0,300.1 520.0,299.2 522.0,298.5 524.0,298.1 526.0,298.0 528.0,298.2 530.0,298.7 532.0,299.4 534.0,300.4 536.0,301.7 538.0,303.2 540.0,304.9 542.0,306.8 544.0,308.8 546.0,310.9 548.0,313.1 550.0,315.3 552.0,317.5 554.0,319.7 556.0,321.8 558.0,323.8 560.0,325.6 562.0,327.2 564.0,328.7 566.0,329.9 568.0,330.8 570.0,331.5 572.0,331.9 574.0,332.0 576.0,331.8 578.0,331.3 580.0,330.6 582.0,329.6 584.0,328.3 586.0,326.8 588.0,325.1 590.0,323.2 592.0,321.2 594.0,319.1 596.0,316.9 598.0,314.7 600.0,312.5" fill="none" stroke="#8A8073" stroke-width="2.4" stroke-linecap="round"/>
  <circle cx="106" cy="150" r="4" fill="#A5680F"/><text x="90" y="154" text-anchor="end" fill="#8A8073" font-family="Hanken Grotesk,sans-serif" font-size="13">finger · L</text><circle cx="106" cy="205" r="4" fill="#A5680F"/><text x="90" y="209" text-anchor="end" fill="#8A8073" font-family="Hanken Grotesk,sans-serif" font-size="13">finger · R</text><circle cx="106" cy="260" r="4" fill="#A5680F"/><text x="90" y="264" text-anchor="end" fill="#8A8073" font-family="Hanken Grotesk,sans-serif" font-size="13">toe · L</text><circle cx="106" cy="315" r="4" fill="#A5680F"/><text x="90" y="319" text-anchor="end" fill="#8A8073" font-family="Hanken Grotesk,sans-serif" font-size="13">toe · R</text>
</svg>